<?xml version="1.0" standalone="no"?>
<!DOCTYPE svg PUBLIC "-//W3C//DTD SVG 20010904//EN"
 "http://www.w3.org/TR/2001/REC-SVG-20010904/DTD/svg10.dtd">
<svg version="1.0" xmlns="http://www.w3.org/2000/svg"
 width="503.000000pt" height="513.000000pt" viewBox="0 0 503.000000 513.000000"
 preserveAspectRatio="xMidYMid meet">

<g transform="translate(0.000000,513.000000) scale(0.100000,-0.100000)"
fill="#000000" stroke="none">
<path d="M2005 5113 c-854 -41 -1519 -236 -1823 -533 -73 -71 -119 -140 -150
-223 l-22 -59 0 -1693 0 -1694 24 -67 c80 -220 320 -394 736 -534 234 -78 582
-149 909 -184 188 -21 188 -21 222 13 39 39 39 83 1 121 -25 24 -39 29 -108
35 -794 69 -1430 300 -1573 570 l-26 50 -3 393 c-2 333 -1 392 11 392 8 0 21
-8 28 -17 23 -27 179 -126 270 -170 390 -191 923 -296 1614 -319 l211 -7 29
26 c40 34 42 98 4 131 -25 21 -39 23 -225 29 -217 8 -469 29 -634 53 -668 98
-1166 309 -1281 541 -24 48 -24 51 -27 441 -2 215 0 392 4 392 4 0 30 -17 58
-39 302 -230 787 -380 1451 -447 244 -25 787 -30 1055 -10 558 42 994 141
1325 301 110 53 228 126 276 171 14 13 28 24 32 24 4 0 7 -177 7 -394 0 -262
4 -404 11 -425 22 -63 107 -77 149 -24 20 25 20 38 20 1192 0 1153 0 1167 -21
1220 -117 309 -592 556 -1296 675 -361 61 -863 88 -1258 69z m760 -193 c734
-62 1322 -247 1546 -487 57 -60 77 -99 85 -157 37 -266 -519 -547 -1296 -655
-297 -41 -377 -46 -800 -46 -424 0 -522 6 -805 46 -655 93 -1155 304 -1274
537 -148 290 439 614 1325 731 133 17 335 35 524 45 107 6 566 -4 695 -14z
m-2501 -1069 c258 -195 670 -337 1186 -410 532 -74 1208 -73 1735 5 463 67
897 218 1131 393 l79 59 3 -390 2 -391 -23 -51 c-114 -249 -698 -480 -1417
-560 -529 -60 -1113 -45 -1600 40 -598 104 -1042 308 -1144 524 -20 43 -21 62
-24 438 -2 215 -1 392 2 392 3 0 34 -22 70 -49z"/>
<path d="M3850 1729 c-163 -19 -298 -86 -423 -211 l-89 -88 -71 0 c-191 0
-357 -107 -442 -283 -22 -47 -44 -78 -63 -89 -55 -32 -150 -145 -186 -220 -44
-91 -58 -151 -58 -254 -1 -165 53 -297 171 -415 87 -86 166 -131 276 -154 104
-22 1550 -22 1643 0 178 42 328 180 389 359 28 81 34 215 14 301 -35 147 -150
294 -280 357 l-69 33 -12 65 c-68 377 -421 641 -800 599z m210 -190 c143 -33
296 -159 363 -299 42 -89 57 -156 57 -249 l0 -69 74 -16 c116 -26 195 -88 253
-199 25 -47 28 -62 28 -157 0 -92 -3 -112 -26 -160 -48 -101 -148 -179 -259
-200 -71 -14 -1459 -13 -1530 0 -127 24 -229 103 -284 220 -26 54 -32 80 -34
152 -5 102 12 165 66 247 34 51 130 133 171 146 12 3 21 19 26 42 19 101 114
210 208 238 67 20 123 19 194 -3 l59 -19 35 60 c70 122 203 227 330 261 63 17
205 20 269 5z"/>
</g>
</svg>
