<svg xmlns="http://www.w3.org/2000/svg" viewBox="0 0 64 64" id="cloud-database">
  <path d="M54.8 19.6A17.21 17.21 0 0 0 55 17 17 17 0 0 0 25.89 5.06a10.51 10.51 0 0 0-13.6 7.48A16.5 16.5 0 0 0 15 44.92V48a2 2 0 0 0 2 2h13v2.35A6 6 0 0 0 26.35 56H19v4h7.35a6 6 0 0 0 11.3 0H45v-4h-7.35A6 6 0 0 0 34 52.35V50h13a2 2 0 0 0 2-2v-3h2a13 13 0 0 0 3.8-25.4ZM32 60a2 2 0 1 1 2-2 2 2 0 0 1-2 2ZM19 30h26v6H19Zm26-4H19v-6h26Zm0 20H19v-6h26Zm6-5h-2V18a2 2 0 0 0-2-2H17a2 2 0 0 0-2 2v22.9a12.5 12.5 0 0 1-.63-24.72A2 2 0 0 0 16 14.39a6.51 6.51 0 0 1 9.5-5.16 2 2 0 0 0 2.5-.49 13 13 0 0 1 22.5 11.83 2 2 0 0 0 .25 1.66 2 2 0 0 0 1.42.88A9 9 0 0 1 51 41Z"></path>
  <path d="M40 21h4v4h-4zM35 21h4v4h-4zM20 21h11v4H20zM40 31h4v4h-4zM35 31h4v4h-4zM20 31h11v4H20zM40 41h4v4h-4zM35 41h4v4h-4zM20 41h11v4H20z"></path>
</svg>
