<svg xmlns="http://www.w3.org/2000/svg" fill-rule="evenodd" stroke-linejoin="round" stroke-miterlimit="2" clip-rule="evenodd" viewBox="0 0 64 64" id="web-development">
  <path d="M49 8l-2 0c-.552 0-1 .448-1 1 0 .552.448 1 1 1l2 0c.552 0 1-.448 1-1 0-.552-.448-1-1-1zM43 8l-2 0c-.552 0-1 .448-1 1 0 .552.448 1 1 1l2 0c.552 0 1-.448 1-1 0-.552-.448-1-1-1zM37 8l-2 0c-.552 0-1 .448-1 1 0 .552.448 1 1 1l2 0c.552 0 1-.448 1-1 0-.552-.448-1-1-1zM53 12l-42 0c-.552 0-1 .448-1 1 0 .552.448 1 1 1l42 0c.552 0 1-.448 1-1 0-.552-.448-1-1-1zM11 14l-4 0c-1.656 0-3 1.344-3 3 0 0 0 32 0 32 0 1.656 1.344 3 3 3 0 0 50 0 50 0 1.656 0 3-1.344 3-3l0-32c0-1.656-1.344-3-3-3l-4 0c-.552 0-1 .448-1 1 0 .552.448 1 1 1l4 0c.552 0 1 .448 1 1 0 0 0 32 0 32 0 .552-.448 1-1 1l-50 0c-.552 0-1-.448-1-1l0-32c0-.552.448-1 1-1 0 0 4 0 4 0 .552 0 1-.448 1-1 0-.552-.448-1-1-1z"></path>
  <path d="M27.064 50.649l-3 8c-.194.517.068 1.094.585 1.287.517.194 1.094-.068 1.287-.585l3-8c.194-.517-.068-1.094-.585-1.287-.517-.194-1.094.068-1.287.585zM35.064 51.351l3 8c.193.517.77.779 1.287.585.517-.193.779-.77.585-1.287l-3-8c-.193-.517-.77-.779-1.287-.585-.517.193-.779.77-.585 1.287z"></path>
  <path d="M23 60l18 0c.552 0 1-.448 1-1 0-.552-.448-1-1-1l-18 0c-.552 0-1 .448-1 1 0 .552.448 1 1 1zM54 45l0-38c0-1.656-1.344-3-3-3l-38 0c-1.656 0-3 1.344-3 3 0 0 0 38 0 38 0 .552.448 1 1 1 .552 0 1-.448 1-1l0-38c0-.552.448-1 1-1 0 0 38 0 38 0 .552 0 1 .448 1 1 0 0 0 38 0 38 0 .552.448 1 1 1 .552 0 1-.448 1-1z"></path>
  <path d="M5 46l54 0c.552 0 1-.448 1-1 0-.552-.448-1-1-1l-54 0c-.552 0-1 .448-1 1 0 .552.448 1 1 1zM29 19.459l0-2.459c0-.552.448-1 1-1l4 0c.552 0 1 .448 1 1l0 2.459c.565.178 1.108.404 1.624.674l1.74-1.74c.39-.39 1.024-.39 1.414 0l2.829 2.829c.39.39.39 1.024 0 1.414l-1.74 1.74c.27.516.497 1.059.674 1.624l2.459 0c.552 0 1 .448 1 1l0 4c0 .552-.448 1-1 1l-2.459 0c-.178.565-.404 1.108-.674 1.624l1.74 1.74c.39.39.39 1.024 0 1.414l-2.829 2.829c-.39.39-1.024.39-1.414 0l-1.74-1.74c-.516.27-1.059.497-1.624.674l0 2.459c0 .552-.448 1-1 1l-4 0c-.552 0-1-.448-1-1l0-2.459c-.565-.178-1.108-.404-1.624-.674l-1.74 1.74c-.39.39-1.024.39-1.414 0l-2.829-2.829c-.39-.39-.39-1.024 0-1.414l1.74-1.74c-.27-.516-.497-1.059-.674-1.624l-2.459 0c-.552 0-1-.448-1-1l0-4c0-.552.448-1 1-1l2.459 0c.178-.565.404-1.108.674-1.624l-1.74-1.74c-.39-.39-.39-1.024 0-1.414l2.829-2.829c.39-.39 1.024-.39 1.414 0l1.74 1.74c.516-.27 1.059-.497 1.624-.674zm4-1.459l-2 0 0 2.223c0 .467-.323.872-.778.976-.892.202-1.728.554-2.479 1.028-.395.249-.91.192-1.241-.139l-1.573-1.573-1.414 1.414 1.573 1.573c.331.331.388.846.139 1.241-.474.751-.826 1.587-1.028 2.479-.104.455-.509.778-.976.778l-2.223 0 0 2 2.223 0c.467 0 .872.323.976.778.202.892.554 1.728 1.028 2.479.249.395.192.91-.139 1.241l-1.573 1.573 1.414 1.414 1.573-1.573c.331-.331.846-.388 1.241-.139.751.474 1.587.826 2.479 1.028.455.104.778.509.778.976l0 2.223 2 0 0-2.223c0-.467.323-.872.778-.976.892-.202 1.728-.554 2.479-1.028.395-.249.91-.192 1.241.139l1.573 1.573 1.414-1.414-1.573-1.573c-.331-.331-.388-.846-.139-1.241.474-.751.826-1.587 1.028-2.479.104-.455.509-.778.976-.778l2.223 0 0-2-2.223 0c-.467 0-.872-.323-.976-.778-.202-.892-.554-1.728-1.028-2.479-.249-.395-.192-.91.139-1.241l1.573-1.573-1.414-1.414-1.573 1.573c-.331.331-.846.388-1.241.139-.751-.474-1.587-.826-2.479-1.028-.455-.104-.778-.509-.778-.976l0-2.223z"></path>
  <path d="M32,23c-3.311,0 -6,2.689 -6,6c0,3.311 2.689,6 6,6c3.311,0 6,-2.689 6,-6c0,-3.311 -2.689,-6 -6,-6Zm0,2c2.208,0 4,1.792 4,4c0,2.208 -1.792,4 -4,4c-2.208,0 -4,-1.792 -4,-4c0,-2.208 1.792,-4 4,-4Z"></path>
</svg>
